<svg width="222.2399963378906" height="146.09844471342095" viewBox="0 0 350.00000000000006 230.08664728356646" class="css-1j8o68f"><defs id="SvgjsDefs3354"></defs><g id="SvgjsG3355" featurekey="9id2mP-0" transform="matrix(0.24853248639971157,0,0,0.24853248639971157,99.85703220891135,-12.512189144776762)" fill="#62c1bf"><metadata xmlns="http://www.w3.org/2000/svg">Created by potrace 1.14, written by Peter Selinger 2001-2017</metadata><g xmlns="http://www.w3.org/2000/svg" transform="translate(0.000000,600.000000) scale(0.100000,-0.100000)" fill="#62c1bf" stroke="none"><path d="M3160 5494 c-413 -40 -538 -58 -1080 -155 -155 -28 -278 -43 -395 -50 -93 -6 -180 -14 -193 -20 -60 -24 -71 -138 -43 -444 30 -320 43 -400 117 -725 123 -538 223 -920 259 -995 31 -64 95 -145 114 -145 4 0 7 69 7 153 l-1 152 -107 325 c-219 667 -274 863 -318 1130 -37 217 -49 440 -28 480 l14 25 149 -3 c114 -3 223 4 450 27 611 62 636 63 949 62 323 -2 380 -8 585 -61 132 -35 148 -36 177 -12 36 29 51 64 53 123 3 86 -10 96 -144 114 -109 15 -478 27 -565 19z"></path><path d="M4148 5382 c-76 -39 -361 -236 -506 -349 -170 -133 -958 -880 -1028 -976 -40 -54 -84 -150 -84 -182 0 -17 16 -20 25 -5 3 5 38 25 78 43 110 52 170 105 368 327 266 298 500 549 635 680 252 245 578 477 637 454 7 -2 44 -64 83 -137 43 -78 131 -214 218 -334 211 -293 458 -646 481 -690 11 -21 66 -122 122 -224 114 -206 139 -266 189 -449 19 -69 43 -133 53 -143 41 -42 138 -29 199 26 31 29 28 56 -19 165 -151 353 -337 629 -790 1172 -303 363 -324 390 -409 525 -34 55 -72 108 -84 117 -34 28 -87 22 -168 -20z"></path><path d="M1182 4845 c-69 -78 -232 -321 -287 -428 -134 -257 -244 -526 -449 -1092 -42 -115 -115 -290 -163 -387 -98 -202 -98 -206 -19 -274 45 -39 299 -167 522 -262 239 -102 1292 -421 1444 -437 100 -11 240 21 184 41 -10 4 -39 23 -64 42 -100 76 -163 96 -540 176 -636 134 -854 189 -1060 264 -304 111 -479 200 -495 251 -4 14 17 56 71 142 45 73 114 207 169 328 270 601 329 722 482 975 140 233 165 266 303 410 101 106 110 118 110 153 -1 51 -16 76 -70 112 -64 43 -90 41 -138 -14z"></path><path d="M3692 3829 c-90 -15 -90 -20 0 -78 132 -87 164 -97 535 -176 668 -141 871 -192 1108 -281 262 -98 455 -200 455 -242 0 -10 -32 -69 -72 -132 -39 -63 -107 -194 -151 -290 -323 -714 -342 -753 -510 -1030 -131 -217 -174 -274 -324 -431 -87 -90 -94 -105 -72 -167 13 -39 93 -92 137 -92 27 0 39 9 77 58 95 119 244 352 302 472 149 305 205 442 389 950 80 218 139 364 195 473 43 87 79 170 79 184 0 51 -82 114 -262 201 -353 173 -466 215 -1008 377 -657 197 -766 222 -878 204z"></path><path d="M2881 3290 c-65 -23 -101 -46 -101 -63 0 -7 -22 -29 -49 -50 -64 -47 -98 -106 -118 -203 -14 -70 -14 -80 1 -111 9 -18 16 -44 16 -57 0 -56 32 -126 81 -180 59 -65 105 -95 151 -101 18 -2 60 -13 93 -25 70 -26 133 -22 217 11 75 29 218 175 241 245 27 81 32 159 13 188 -9 14 -16 38 -16 54 0 16 -7 49 -16 75 -28 81 -148 197 -204 197 -15 0 -47 9 -71 20 -58 26 -165 26 -238 0z"></path><path d="M4095 2688 l1 -153 106 -320 c102 -308 214 -669 257 -825 74 -273 124 -709 91 -796 l-11 -27 -147 6 c-116 5 -196 1 -382 -18 -711 -72 -676 -70 -1020 -67 -345 2 -354 3 -582 59 -140 35 -147 36 -172 20 -38 -25 -57 -60 -62 -115 -6 -62 8 -100 42 -112 42 -16 329 -41 474 -41 284 0 564 34 1227 152 211 37 325 52 449 58 192 11 209 18 232 92 22 72 2 407 -43 719 -18 123 -125 591 -230 1010 -79 313 -112 400 -179 473 -19 20 -39 37 -43 37 -4 0 -8 -69 -8 -152z"></path><path d="M466 2402 c-68 -39 -74 -57 -46 -134 41 -114 167 -366 234 -467 176 -269 310 -443 710 -920 101 -121 212 -266 256 -335 43 -67 87 -131 98 -143 33 -35 92 -31 177 13 110 56 477 317 610 434 194 171 844 793 908 869 46 56 86 134 94 187 6 37 5 38 -13 23 -10 -8 -59 -34 -107 -58 -107 -52 -149 -91 -446 -424 -117 -130 -289 -319 -384 -419 -316 -334 -728 -646 -793 -601 -6 5 -42 66 -81 138 -40 74 -132 216 -214 330 -183 253 -392 551 -446 635 -22 36 -92 160 -156 275 -113 208 -167 341 -207 513 -17 74 -44 103 -100 108 -36 3 -55 -2 -94 -24z"></path></g></g><g id="SvgjsG3356" featurekey="zfl5BF-0" transform="matrix(3.543895835023195,0,0,3.543895835023195,-2.7593940290443695,124.19273084469886)" fill="#ffffff"><path d="M6.54 20.18 c-1.92 0 -4.38 -0.54 -5.18 -0.84 l0.7 -1.88 c0.74 0.28 3.84 0.92 5.3 0.66 c0.5 -0.08 0.9 -0.54 0.98 -1.06 c0.08 -0.68 -0.42 -1.34 -1.4 -1.8 c-0.6 -0.28 -1.72 -0.76 -2.62 -1.14 c-0.52 -0.22 -0.98 -0.42 -1.26 -0.54 c-0.72 -0.32 -1.32 -0.82 -1.72 -1.4 c-0.38 -0.58 -0.58 -1.24 -0.56 -1.92 c0.02 -0.64 0.22 -1.24 0.6 -1.76 c0.38 -0.54 0.92 -0.94 1.56 -1.18 c0.86 -0.34 2.1 -0.34 3.68 -0.06 c1.2 0.24 2.28 0.58 2.74 0.74 l-0.7 1.88 c-0.36 -0.14 -1.34 -0.44 -2.42 -0.64 c-1.64 -0.32 -2.36 -0.14 -2.58 -0.06 c-0.54 0.2 -0.86 0.62 -0.88 1.14 c-0.02 0.58 0.4 1.12 1.1 1.44 c0.26 0.1 0.72 0.3 1.24 0.52 c0.9 0.4 2.04 0.88 2.68 1.18 c0.92 0.44 1.6 1 2.04 1.7 c0.42 0.68 0.58 1.42 0.48 2.18 c-0.18 1.38 -1.26 2.5 -2.6 2.74 c-0.36 0.06 -0.76 0.1 -1.18 0.1 z  M20.1 7.220000000000001 l2 0 l0 12.78 l-2 0 l0 -5.82 l-5.56 0 l0 5.82 l-2 0 l0 -12.78 l2 0 l0 4.96 l5.56 0 l0 -4.96 z M26.96 17.98 l5.42 0 l0 2 l-7.42 0 l0 -12.78 l6.96 0 l0 2 l-4.96 0 l0 2.96 l4.6 0 l0 2 l-4.6 0 l0 3.82 z M42.019999999999996 20 c-0.08 -1.8 -1.22 -2.92 -2.86 -4.28 l-2.76 0 l0 4.28 l-2 0 l0 -12.78 l1.38 0 l0.62 0 l3.48 0 c0.56 0 1.08 0.1 1.6 0.28 c0.5 0.2 0.98 0.5 1.36 0.86 c0.86 0.8 1.34 1.9 1.34 3.1 c0 1.22 -0.48 2.32 -1.34 3.1 c-0.32 0.32 -0.7 0.56 -1.1 0.76 c0.34 0.34 0.66 0.68 0.96 1.08 c0.84 1.08 1.26 2.24 1.32 3.52 l0 0.08 l-2 0 l0 0 z M36.4 13.719999999999999 l3.48 0 c1.12 0 2.3 -0.8 2.3 -2.26 s-1.18 -2.24 -2.3 -2.24 l-3.48 0 l0 4.5 z M54.82 13.219999999999999 c0.94 0.72 1.44 1.76 1.44 2.88 c0 1.14 -0.5 2.18 -1.44 2.9 c-0.8 0.66 -1.88 1 -2.98 1 l-5.66 0 l0 -12.78 l5.02 0 c0.98 0 1.9 0.3 2.62 0.88 c0.84 0.66 1.28 1.56 1.28 2.58 c0 0.8 -0.28 1.56 -0.82 2.16 c0.18 0.12 0.38 0.24 0.54 0.38 z M51.2 9.22 l-3.02 0 l0 2.92 l3.02 0 c0.94 0 1.9 -0.54 1.9 -1.46 s-0.96 -1.46 -1.9 -1.46 z M51.84 18 c1.18 0 2.42 -0.7 2.42 -1.9 c0 -1.18 -1.24 -1.9 -2.42 -1.9 l-3.66 0 l0 3.8 l3.66 0 z M67.94 8.9 c0.92 1.14 1.4 2.72 1.4 4.7 s-0.48 3.56 -1.4 4.7 c-0.5 0.62 -1.14 1.08 -1.88 1.4 s-1.58 0.48 -2.52 0.48 s-1.78 -0.16 -2.52 -0.48 s-1.38 -0.78 -1.88 -1.4 c-0.92 -1.14 -1.4 -2.72 -1.4 -4.7 s0.48 -3.56 1.4 -4.7 c0.5 -0.62 1.14 -1.1 1.88 -1.42 s1.58 -0.48 2.52 -0.48 s1.78 0.16 2.52 0.48 s1.38 0.8 1.88 1.42 z M66.4 17.04 c0.62 -0.76 0.94 -1.96 0.94 -3.44 c0 -1.5 -0.32 -2.68 -0.94 -3.44 s-1.58 -1.16 -2.86 -1.16 c-1.26 0 -2.22 0.4 -2.84 1.16 s-0.96 1.94 -0.96 3.44 c0 1.48 0.34 2.68 0.96 3.44 s1.58 1.14 2.84 1.14 c1.28 0 2.24 -0.38 2.86 -1.14 z M73.44000000000001 18 l5.42 0 l0 2 l-7.42 0 l0 -12.78 l2 0 l0 10.78 z M89.36 8.9 c0.92 1.14 1.4 2.72 1.4 4.7 s-0.48 3.56 -1.4 4.7 c-0.5 0.62 -1.14 1.08 -1.88 1.4 s-1.58 0.48 -2.52 0.48 s-1.78 -0.16 -2.52 -0.48 s-1.38 -0.78 -1.88 -1.4 c-0.92 -1.14 -1.4 -2.72 -1.4 -4.7 s0.48 -3.56 1.4 -4.7 c0.5 -0.62 1.14 -1.1 1.88 -1.42 s1.58 -0.48 2.52 -0.48 s1.78 0.16 2.52 0.48 s1.38 0.8 1.88 1.42 z M87.82000000000001 17.04 c0.62 -0.76 0.94 -1.96 0.94 -3.44 c0 -1.5 -0.32 -2.68 -0.94 -3.44 s-1.58 -1.16 -2.86 -1.16 c-1.26 0 -2.22 0.4 -2.84 1.16 s-0.96 1.94 -0.96 3.44 c0 1.48 0.34 2.68 0.96 3.44 s1.58 1.14 2.84 1.14 c1.28 0 2.24 -0.38 2.86 -1.14 z M99.54 7.199999999999999 l0 2 l-3.12 0 l0 10.8 l-2 0 l0 -10.8 l-3.1 0 l0 -2 l8.22 0 z"></path></g><g id="SvgjsG3357" featurekey="pYXC9J-0" transform="matrix(1.7010344310115622,0,0,1.7010344310115622,93.96597974938264,196.0659586633352)" fill="#62c1bf"><path d="M8 5.84 l6.06 14.16 l-2.24 0 l-1.42 -3.5 l-6.74 0 l-1.4 3.5 l-2.24 0 l6.24 -14.16 l1.74 0 z M4.34 14.82 l5.36 0 l-2.64 -6.5 l-0.04 0 z M24.604 5.84 c1.3867 0 2.4734 0.34666 3.26 1.04 s1.18 1.6667 1.18 2.92 c0 0.94666 -0.32334 1.7733 -0.97 2.48 s-1.4767 1.1267 -2.49 1.26 l-0.02 0 l4.02 6.46 l-2.4 0 l-3.6 -6.24 l-2.14 0 l0 6.24 l-1.92 0 l0 -14.16 l5.08 0 z M24.044 12.08 c1 0 1.7433 -0.18336 2.23 -0.55002 s0.73 -0.94332 0.73 -1.73 c0 -1.52 -0.98666 -2.28 -2.96 -2.28 l-2.6 0 l0 4.56 l2.6 0 z M40.368 5.84 c1.2933 0 2.32 0.32 3.08 0.96 s1.14 1.5 1.14 2.58 c0 1.5333 -0.81334 2.5734 -2.44 3.12 l0 0.04 l0.02 0 c0.92 0.10666 1.6567 0.49 2.21 1.15 s0.83 1.45 0.83 2.37 c0 1.1867 -0.45666 2.14 -1.37 2.86 s-2.09 1.08 -3.53 1.08 l-4.94 0 l0 -14.16 l5 0 z M39.968 11.72 c0.8 0 1.43 -0.18334 1.89 -0.55 s0.69 -0.89 0.69 -1.57 c0 -0.64 -0.2 -1.1467 -0.6 -1.52 s-0.92666 -0.56 -1.58 -0.56 l-3.08 0 l0 4.2 l2.68 0 z M40.188 18.32 c0.94666 0 1.68 -0.22 2.2 -0.66 s0.78 -1.02 0.78 -1.74 c0 -0.8 -0.26334 -1.42 -0.79 -1.86 s-1.27 -0.66 -2.23 -0.66 l-2.86 0 l0 4.92 l2.9 0 z M57.772000000000006 5.84 l6.06 14.16 l-2.24 0 l-1.42 -3.5 l-6.74 0 l-1.4 3.5 l-2.24 0 l6.24 -14.16 l1.74 0 z M54.11200000000001 14.82 l5.36 0 l-2.64 -6.5 l-0.04 0 z M78.436 5.84 l0 1.8 l-7.22 0 l0 4.22 l6.72 0 l0 1.8 l-6.72 0 l0 4.54 l7.58 0 l0 1.8 l-9.5 0 l0 -14.16 l9.14 0 z M85.41999999999999 5.84 l4.16 11.52 l0.04 0 l4.32 -11.52 l2.1 0 l-5.58 14.16 l-1.8 0 l-5.46 -14.16 l2.22 0 z"></path></g></svg>